<svg version="1.0" id="Layer_1" xmlns="http://www.w3.org/2000/svg" xmlns:xlink="http://www.w3.org/1999/xlink" width="256px" height="256px" viewBox="-6.4 -6.4 76.80 76.80" enable-background="new 0 0 64 64" xml:space="preserve" fill="#000000"><g id="SVGRepo_bgCarrier" stroke-width="0"></g><g id="SVGRepo_tracerCarrier" stroke-linecap="round" stroke-linejoin="round"></g><g id="SVGRepo_iconCarrier"> <g> <g> <path fill="#394240" d="M59.998,28.001h-7.999c-2.211,0-4,1.789-4,4s1.789,4,4,4h7.999c2.211,0,4-1.789,4-4 S62.209,28.001,59.998,28.001z"></path> <path fill="#394240" d="M49.71,19.466l6.929-4c1.914-1.105,2.57-3.551,1.461-5.465c-1.102-1.914-3.547-2.57-5.46-1.465l-6.93,4 c-1.914,1.105-2.57,3.551-1.461,5.464C45.351,19.915,47.796,20.571,49.71,19.466z"></path> <path fill="#394240" d="M56.639,48.535l-6.929-3.999c-1.914-1.105-4.355-0.449-5.461,1.464c-1.105,1.914-0.453,4.359,1.461,5.465 l6.93,4c1.913,1.105,4.358,0.449,5.464-1.465S58.553,49.641,56.639,48.535z"></path> <path fill="#394240" d="M37.53,0.307c-1.492-0.625-3.211-0.277-4.359,0.867L18.343,16.001H4c-2.211,0-4,1.789-4,4v24 C0,46.211,1.789,48,4,48h14.343l14.828,14.828C33.937,63.594,34.96,64,35.999,64c0.516,0,1.035-0.098,1.531-0.305 c1.496-0.617,2.469-2.078,2.469-3.695V4.001C39.999,2.384,39.026,0.924,37.53,0.307z M31.999,50.344l-9.172-9.171 c-0.75-0.75-1.766-1.172-2.828-1.172H8v-16h11.999c1.062,0,2.078-0.422,2.828-1.172l9.172-9.171V50.344z"></path> </g> <path fill="#F76D57" d="M31.999,50.344l-9.172-9.171c-0.75-0.75-1.766-1.172-2.828-1.172H8v-16h11.999 c1.062,0,2.078-0.422,2.828-1.172l9.172-9.171V50.344z"></path> </g> </g></svg>